<svg width="23" height="25" viewBox="0 0 23 25" fill="none" xmlns="http://www.w3.org/2000/svg">
<path d="M8.50037 19.5268C3.50037 21.0268 3.50037 17.0268 1.50037 16.5268L8.50037 19.5268ZM15.5004 22.5268V18.6568C15.5379 18.18 15.4735 17.7006 15.3114 17.2506C15.1493 16.8006 14.8933 16.3902 14.5604 16.0468C17.7004 15.6968 21.0004 14.5068 21.0004 9.04679C21.0001 7.65062 20.4631 6.30799 19.5004 5.29679C19.9562 4.0753 19.924 2.72514 19.4104 1.52679C19.4104 1.52679 18.2304 1.17679 15.5004 3.00679C13.2084 2.38561 10.7924 2.38561 8.50037 3.00679C5.77037 1.17679 4.59037 1.52679 4.59037 1.52679C4.07674 2.72514 4.04451 4.0753 4.50037 5.29679C3.53049 6.31549 2.99289 7.67026 3.00037 9.07679C3.00037 14.4968 6.30037 15.6868 9.44037 16.0768C9.11136 16.4168 8.85763 16.8222 8.69567 17.2667C8.53372 17.7112 8.46717 18.1849 8.50037 18.6568V22.5268" fill="black"/>
<path d="M8.50037 19.5268C3.50037 21.0268 3.50037 17.0268 1.50037 16.5268M15.5004 22.5268V18.6568C15.5379 18.18 15.4735 17.7006 15.3114 17.2506C15.1493 16.8006 14.8933 16.3902 14.5604 16.0468C17.7004 15.6968 21.0004 14.5068 21.0004 9.04679C21.0001 7.65062 20.4631 6.30799 19.5004 5.29679C19.9562 4.0753 19.924 2.72514 19.4104 1.52679C19.4104 1.52679 18.2304 1.17679 15.5004 3.00679C13.2084 2.38561 10.7924 2.38561 8.50037 3.00679C5.77037 1.17679 4.59037 1.52679 4.59037 1.52679C4.07674 2.72514 4.04451 4.0753 4.50037 5.29679C3.53049 6.31549 2.99289 7.67026 3.00037 9.07679C3.00037 14.4968 6.30037 15.6868 9.44037 16.0768C9.11136 16.4168 8.85763 16.8222 8.69567 17.2667C8.53372 17.7112 8.46717 18.1849 8.50037 18.6568V22.5268" stroke="white" stroke-width="3" stroke-linecap="round" stroke-linejoin="round"/>
</svg>
