<svg width="23" height="24" viewBox="0 0 23 24" fill="none" xmlns="http://www.w3.org/2000/svg">
<path d="M21.2292 0.00206205C20.9177 0.0176943 20.6275 0.120901 20.372 0.23838C20.1327 0.347889 19.2183 0.794016 17.778 1.49661C16.3365 2.19982 14.4278 3.13201 12.3916 4.12804C8.31943 6.12009 3.74118 8.36245 1.39619 9.51012C1.30801 9.55326 1.00033 9.66507 0.673764 9.95508C0.347199 10.2451 0 10.846 0 11.5156C0 12.0556 0.22621 12.592 0.510938 12.9122C0.795666 13.2325 1.09695 13.3907 1.35501 13.5105C2.29138 13.9451 5.19544 15.297 5.74384 15.5522C5.93684 16.2247 6.98797 19.8824 7.23174 20.7788C7.39243 21.3704 7.54539 21.7409 7.74455 22.0349C7.84412 22.182 7.95987 22.3108 8.10014 22.4118C8.15621 22.4521 8.21769 22.4832 8.27981 22.5118L8.28356 22.514C8.29787 22.5205 8.31021 22.5316 8.32473 22.5374C8.35212 22.5483 8.37044 22.5496 8.40708 22.5587C8.55304 22.6123 8.70041 22.646 8.83193 22.646C9.39265 22.646 9.73589 22.2947 9.73589 22.2947L9.75648 22.2776L12.6406 19.4397L16.1385 23.2038C16.1878 23.283 16.6471 24 17.6601 24C18.2616 24 18.7387 23.6567 19.0451 23.291C19.3514 22.9254 19.5423 22.5413 19.6234 22.0584V22.0562C19.6993 21.5999 22.923 2.774 22.923 2.774L22.9173 2.79955C23.0117 2.30956 23.0364 1.85324 22.9323 1.40294C22.8282 0.952629 22.5538 0.521484 22.2136 0.289475C21.8735 0.0575185 21.5407 -0.0135703 21.2292 0.00206205ZM21.0495 2.28008C21.0449 2.31189 21.053 2.29589 21.0458 2.3333L21.0439 2.34608L21.042 2.35885C21.042 2.35885 17.8583 20.9439 17.7406 21.6517C17.7492 21.5983 17.7098 21.7046 17.6695 21.7688C17.6124 21.7241 17.4954 21.6666 17.4954 21.6666L17.4767 21.6432L12.6986 16.5017L9.3204 19.8229L10.3254 15.2456C10.3254 15.2456 16.6078 7.84789 16.9863 7.41732C17.2911 7.07287 17.355 6.95279 17.355 6.83398C17.355 6.67483 17.2821 6.55934 17.1192 6.55934C16.9726 6.55934 16.7755 6.72148 16.6701 6.79779C15.2968 7.79359 9.26795 11.7906 6.56546 13.5786C6.13599 13.3787 3.1523 11.9894 2.14107 11.5199C2.14873 11.5161 2.14621 11.5174 2.15417 11.5135C4.49978 10.3655 9.07612 8.12319 13.1478 6.13141C15.1836 5.13553 17.0938 4.20263 18.5341 3.49999C19.9523 2.80817 20.9377 2.33204 21.0495 2.28008Z" fill="white"/>
</svg>
