<svg width="33" height="23" viewBox="0 0 33 23" fill="none" xmlns="http://www.w3.org/2000/svg">
<path d="M30 0H3C1.3425 0 0 0.935682 0 2.09091V20.9091C0 22.0643 1.3425 23 3 23H30C31.6575 23 33 22.0643 33 20.9091V2.09091C33 0.935682 31.6575 0 30 0ZM26.0415 15.6473L23.2395 15.6745C23.2395 15.6745 22.635 15.7571 21.8445 15.3765C20.796 14.8747 19.8075 13.569 19.0365 13.7383C18.255 13.9119 18.279 15.087 18.279 15.087C18.279 15.087 18.285 15.294 18.1065 15.4288C17.913 15.5741 17.5335 15.5595 17.5335 15.5595H16.278C16.278 15.5595 13.509 15.7195 11.0685 13.9464C8.4105 12.0133 6.0615 8.19845 6.0615 8.19845C6.0615 8.19845 5.9235 7.958 6.0705 7.83464C6.237 7.69873 6.6855 7.69454 6.6855 7.69454L9.6855 7.68409C9.6855 7.68409 9.9675 7.71859 10.1715 7.82314C10.338 7.90886 10.4325 8.06986 10.4325 8.06986C10.4325 8.06986 10.917 8.92609 11.5605 9.70182C12.8145 11.2135 13.3965 11.545 13.8225 11.3829C14.4435 11.1466 14.2575 9.246 14.2575 9.246C14.2575 9.246 14.2695 8.556 13.9455 8.24864C13.6935 8.00923 13.2195 7.93814 13.0125 7.92036C12.843 7.90468 13.119 7.63077 13.479 7.50741C14.019 7.32341 14.973 7.31295 16.0995 7.32027C16.977 7.32654 17.2305 7.36418 17.5725 7.42273C18.6075 7.59732 18.2565 8.27059 18.2565 9.88582C18.2565 10.4033 18.123 11.131 18.657 11.3704C18.888 11.4739 19.4505 11.386 20.853 9.71959C21.5205 8.92923 22.02 8.00086 22.02 8.00086C22.02 8.00086 22.1295 7.83568 22.299 7.76459C22.473 7.69141 22.707 7.71441 22.707 7.71441L25.8645 7.70082C25.8645 7.70082 26.8125 7.62136 26.967 7.92141C27.129 8.23504 26.613 8.96791 25.323 10.167C23.205 12.1367 22.9695 11.9537 24.729 13.0933C26.409 14.1816 26.7555 14.7106 26.814 14.7775C27.5085 15.5835 26.0415 15.6473 26.0415 15.6473Z" fill="white"/>
</svg>
