<svg width="33" height="18" viewBox="0 0 33 18" fill="none" xmlns="http://www.w3.org/2000/svg">
<path d="M16.5 0C11.187 0 4.29109 0.858056 4.29109 0.858056L4.27374 0.870839C1.85392 1.12029 0 2.46057 0 4.09055V8.9992V9.0008V13.9079V13.9095C0.00236135 14.6879 0.435181 15.4403 1.22074 16.0316C2.00631 16.6229 3.09315 17.0143 4.28613 17.1356L4.29109 17.1403C4.29109 17.1403 11.187 18 16.5 18C21.813 18 28.7089 17.1403 28.7089 17.1403L28.7114 17.1387C29.9057 17.0178 30.9938 16.626 31.7799 16.0341C32.5661 15.4421 32.9987 14.6887 33 13.9095V13.9079V9.0008V8.9992V4.09055C32.9982 3.31181 32.5657 2.55901 31.7801 1.9674C30.9944 1.37578 29.9073 0.984146 28.7139 0.86285L28.7089 0.858056C28.7089 0.858056 21.813 0 16.5 0ZM12.6923 5.23462L22.8462 8.9992L12.6923 12.7638V5.23462Z" fill="white"/>
</svg>
